<?xml version="1.0" encoding="UTF-8"?>
<svg id="Layer_1" xmlns="http://www.w3.org/2000/svg" version="1.1" viewBox="0 0 800 800">
  <!-- Generator: Adobe Illustrator 29.0.1, SVG Export Plug-In . SVG Version: 2.1.0 Build 192)  -->
  <defs>
    <style>
      .st0 {
        fill: #92494a;
      }
    </style>
  </defs>
  <path class="st0" d="M400,800C180,800,0,620,0,400S180,0,400,0s400,180,400,400-180,400-400,400ZM316.7,566.7c20,103.3,56.7,166.7,83.3,166.7s63.3-63.3,83.3-166.7h-166.7.1ZM553.3,566.7c-10,56.7-26.7,110-46.7,150,76.7-26.7,143.3-80,183.3-150h-136.7.1ZM110,566.7c40,70,106.7,123.3,183.3,150-20-40-36.7-93.3-46.7-150H110ZM563.3,500h156.7c6.7-30,13.3-66.7,13.3-100s-6.7-70-16.7-100h-156.7c6.7,33.3,6.7,66.7,6.7,100s0,66.7-3.3,100ZM306.7,500h190c3.3-30,6.7-63.3,6.7-100s-3.3-70-6.7-100h-190c-3.3,30-6.7,63.3-6.7,100s3.3,70,6.7,100ZM83.3,500h156.7c-3.3-33.3-3.3-66.7-3.3-100s0-66.7,3.3-100H83.3c-10,30-16.7,66.7-16.7,100s6.7,70,16.7,100ZM553.3,233.3h136.7c-40-70-106.7-123.3-183.3-150,20,40,36.7,93.3,46.7,150h-.1ZM316.7,233.3h170c-20-103.3-56.7-166.7-83.3-166.7s-66.7,63.3-86.7,166.7ZM110,233.3h136.7c10-56.7,26.7-110,46.7-150-76.7,26.7-140,80-183.3,150h0Z"/>
</svg>